<svg width="71" height="36" viewBox="0 0 71 36" fill="none" xmlns="http://www.w3.org/2000/svg">
		<path d="M70.1547 16.3908L54.3011 0.553609C53.7316 -0.110699 52.7308 -0.18814 52.0658 0.380897C51.4008 0.949798 51.3233 1.94959 51.8929 2.6139C51.946 2.67583 52.0038 2.73367 52.0658 2.78661L65.2084 15.9315H2.44371C1.56822 15.9315 0.858398 16.6406 0.858398 17.5153C0.858398 18.39 1.56822 19.099 2.44371 19.099H65.2084L52.0658 32.2279C51.4008 32.7968 51.3233 33.7966 51.8929 34.4609C52.4625 35.1252 53.4632 35.2027 54.1282 34.6336C54.1902 34.5806 54.2481 34.5229 54.3011 34.4609L70.1548 18.6237C70.7694 18.0062 70.7694 17.0086 70.1547 16.3908Z" fill="currentcolor"></path>
		</svg>