<svg width="71" height="36" viewBox="0 0 71 36" fill="none" xmlns="http://www.w3.org/2000/svg">
		<path d="M1.00451 19.3396L16.8581 35.1769C17.4276 35.8412 18.4284 35.9186 19.0934 35.3496C19.7584 34.7807 19.8359 33.7809 19.2663 33.1166C19.2132 33.0546 19.1554 32.9968 19.0934 32.9439L5.95079 19.799H68.7155C69.591 19.799 70.3008 19.0899 70.3008 18.2152C70.3008 17.3405 69.591 16.6315 68.7155 16.6315H5.95079L19.0934 3.50255C19.7584 2.93365 19.8359 1.93385 19.2663 1.26954C18.6967 0.605236 17.696 0.527798 17.031 1.09683C16.969 1.14991 16.9111 1.20762 16.8581 1.26954L1.00437 17.1068C0.389786 17.7243 0.389786 18.7219 1.00451 19.3396Z" fill="currentcolor"></path>
		</svg>