<svg width="31" height="32" viewBox="0 0 31 32" fill="none" xmlns="http://www.w3.org/2000/svg">
                                 <path d="M27.9943 17.8753H25.7506L30.5039 6.05709C30.6954 5.58121 30.4885 5.03002 30.0419 4.82609C29.5953 4.62215 29.078 4.84259 28.8866 5.31846L23.8362 17.8753H7.40009L2.34969 5.31846C2.1583 4.84259 1.64114 4.62202 1.19442 4.82609C0.747827 5.03002 0.540952 5.58115 0.732342 6.05709L5.48566 17.8753H3.242C1.7866 17.8753 0.602539 19.137 0.602539 20.6878V26.3128C0.602539 27.8636 1.7866 29.1253 3.242 29.1253H4.18047V30.1253C4.18047 30.643 4.5744 31.0628 5.0603 31.0628C5.54619 31.0628 5.94012 30.643 5.94012 30.1253V29.1253H25.2962V30.1253C25.2962 30.643 25.6901 31.0628 26.176 31.0628C26.6619 31.0628 27.0558 30.643 27.0558 30.1253V29.1253H27.9943C29.4497 29.1253 30.6337 27.8636 30.6337 26.3128V20.6878C30.6337 19.137 29.4497 17.8753 27.9943 17.8753ZM28.8741 26.3128C28.8741 26.8297 28.4794 27.2503 27.9943 27.2503H3.242C2.75687 27.2503 2.36218 26.8297 2.36218 26.3128V20.6878C2.36218 20.1708 2.75687 19.7503 3.242 19.7503H27.9943C28.4794 19.7503 28.8741 20.1708 28.8741 20.6878V26.3128Z" fill="#EDB62C"></path>
                                 <path d="M13.7557 12.0748C13.4121 12.4409 13.4121 13.0345 13.7557 13.4006C14.0993 13.7668 14.6564 13.7668 15 13.4006C15.0966 13.2977 15.3055 13.125 15.6186 13.125C15.9317 13.125 16.1405 13.2977 16.2371 13.4006C16.5807 13.7668 17.1378 13.7668 17.4814 13.4006C17.825 13.0345 17.825 12.4409 17.4814 12.0748C17.1923 11.7668 16.5658 11.25 15.6186 11.25C14.6713 11.25 14.0449 11.7668 13.7557 12.0748Z" fill="#EDB62C"></path>
                                 <path d="M7.53046 5.44906C9.69189 3.14431 12.5643 1.875 15.6187 1.875C18.6731 1.875 21.5455 3.14431 23.707 5.44906C24.0502 5.81519 24.6073 5.81569 24.9512 5.44956C25.2949 5.08362 25.2951 4.49 24.9517 4.12375C22.4579 1.4645 19.1434 0 15.6187 0C12.094 0 8.77957 1.4645 6.28581 4.12369C5.94233 4.48994 5.9425 5.0835 6.28628 5.4495C6.62993 5.8155 7.18709 5.81525 7.53046 5.44906Z" fill="#EDB62C"></path>
                                 <path d="M22.4604 8.10006C22.8041 7.73419 22.8044 7.14056 22.4611 6.77425C20.6327 4.82406 18.2025 3.75 15.618 3.75C13.0335 3.75 10.6033 4.82406 8.77493 6.77425C8.43157 7.14056 8.4318 7.73412 8.77558 8.10006C9.11935 8.466 9.67646 8.46569 10.0198 8.09937C11.5157 6.50375 13.5039 5.625 15.6179 5.625C17.732 5.625 19.7201 6.50375 21.2161 8.09937C21.5594 8.4655 22.1164 8.46625 22.4604 8.10006Z" fill="#EDB62C"></path>
                                 <path d="M19.9709 10.7498C20.3145 10.3836 20.3145 9.79006 19.9709 9.42394C18.8066 8.18325 17.2606 7.5 15.6177 7.5C13.9748 7.5 12.4288 8.18325 11.2645 9.42394C10.9209 9.79006 10.9209 10.3836 11.2645 10.7498C11.6081 11.1159 12.1652 11.1159 12.5088 10.7498C13.3407 9.86325 14.4448 9.375 15.6177 9.375C16.7906 9.375 17.8947 9.86325 18.7267 10.7498C19.0702 11.1159 19.6273 11.1159 19.9709 10.7498Z" fill="#EDB62C"></path>
                                 <path d="M19.1376 21.625C18.6517 21.625 18.2578 22.0447 18.2578 22.5625V24.4375C18.2578 24.9553 18.6517 25.375 19.1376 25.375C19.6235 25.375 20.0175 24.9553 20.0175 24.4375V22.5625C20.0175 22.0447 19.6235 21.625 19.1376 21.625Z" fill="#EDB62C"></path>
                                 <path d="M22.6572 21.625C22.1713 21.625 21.7773 22.0447 21.7773 22.5625V24.4375C21.7773 24.9553 22.1713 25.375 22.6572 25.375C23.1431 25.375 23.537 24.9553 23.537 24.4375V22.5625C23.537 22.0447 23.1431 21.625 22.6572 21.625Z" fill="#EDB62C"></path>
                                 <path d="M26.1757 21.625C25.6898 21.625 25.2959 22.0447 25.2959 22.5625V24.4375C25.2959 24.9553 25.6898 25.375 26.1757 25.375C26.6616 25.375 27.0555 24.9553 27.0555 24.4375V22.5625C27.0555 22.0447 26.6616 21.625 26.1757 21.625Z" fill="#EDB62C"></path>
                              </svg>