<svg width="33" height="29" viewBox="0 0 33 29" fill="none" xmlns="http://www.w3.org/2000/svg">
                                                   <path d="M26.0245 0H22.2706H18.5167C14.8947 0 11.8848 2.94431 11.8848 6.5625C11.8848 9.863 14.3989 12.6023 17.5782 13.0582V15.9375C17.5782 16.3165 17.8064 16.6589 18.1574 16.8036C18.5036 16.9479 18.9096 16.8705 19.1802 16.6003L22.2706 13.5132L22.6591 13.125H26.0245C29.6464 13.125 32.6563 10.1807 32.6563 6.5625C32.6563 2.94431 29.6464 0 26.0245 0Z" fill="#FFB302"></path>
                                                   <path d="M26.0244 13.125C29.6464 13.125 32.6563 10.1807 32.6563 6.5625C32.6563 2.94431 29.6464 0 26.0244 0H22.2705V13.5132L22.6591 13.125H26.0244Z" fill="#FFB302"></path>
                                                   <path d="M24.5229 21.5625V25.3125C24.5229 26.9438 23.1896 28.125 21.7206 28.125C16.3144 28.125 11.0401 25.5719 7.11729 21.6688C3.19447 17.7656 0.623047 12.5125 0.623047 7.11187C0.623047 5.56062 1.88623 4.3125 3.43847 4.3125H7.19237C7.59654 4.3125 7.95504 4.57063 8.08205 4.95312L9.959 10.565C10.051 10.84 10.0103 11.1413 9.85013 11.3819L8.25848 13.7675C8.86161 15.0312 9.92897 16.4125 11.1615 17.6287C12.3947 18.8444 13.793 19.895 15.058 20.4975L17.4462 18.9075C17.6883 18.7481 17.9886 18.7063 18.2639 18.7987L23.8947 20.6737C24.2776 20.8006 24.5229 21.1588 24.5229 21.5625Z" fill="#336EF9"></path>
                                                   <path d="M24.5277 21.5627V25.3127C24.5277 26.9439 23.1944 28.1252 21.7254 28.1252C16.3191 28.1252 11.0449 25.572 7.12207 21.6689L11.1663 17.6289C12.3994 18.8445 13.7978 19.8952 15.0628 20.4977L17.4509 18.9077C17.6931 18.7483 17.9934 18.7064 18.2687 18.7989L23.8995 20.6739C24.2824 20.8008 24.5277 21.1589 24.5277 21.5627Z" fill="#2562F0"></path>
                                                </svg>