<svg width="196" height="75" viewBox="0 0 196 75" fill="none" xmlns="http://www.w3.org/2000/svg">
                                    <path fill-rule="evenodd" clip-rule="evenodd" d="M39.2261 67.1184C34.6684 65.7953 30.324 64.2925 26.3228 62.6249C22.3188 60.9584 18.6554 59.1281 15.4403 57.1649C12.2281 55.2016 9.46428 53.1053 7.24574 50.9174C5.02166 48.7304 3.34009 46.4539 2.24253 44.1385C0.0418595 39.5068 0.196549 34.7409 2.5431 30.2309C3.71223 27.976 5.42932 25.7879 7.61132 23.7101C9.79332 21.6322 12.443 19.6646 15.4496 17.8378C17.9718 16.3058 20.8094 14.8797 23.7493 13.589C26.6865 12.2962 29.7232 11.1388 32.6243 10.1072C37.308 8.43882 42.631 6.95479 48.0258 5.75314C53.4207 4.54727 58.8707 3.62271 63.7421 2.93788C67.6698 2.38581 71.3288 1.97001 74.9602 1.64303C78.5915 1.3171 82.2007 1.07893 86.0561 0.930771C94.0604 0.62509 102.219 0.717104 110.237 1.21087C118.255 1.70464 126.117 2.60545 133.523 3.87931C140.931 5.15212 147.88 6.79479 154.137 8.73426C160.396 10.6727 165.966 12.9057 170.692 15.3425C176.508 18.3339 180.714 21.6121 183.344 24.8599C185.988 28.1108 187.066 31.324 187.031 34.2647C186.849 34.2509 186.741 33.9526 186.671 34.2751C186.74 35.4183 186.513 36.316 186.158 37.0021C185.928 36.801 185.679 36.656 185.491 36.3302C185.439 35.8744 185.434 35.5498 185.42 35.2283C185.406 34.9068 185.387 34.5885 185.268 34.1496C185.091 34.637 184.659 34.0911 184.458 33.5052C183.95 31.2938 183.137 29.1922 181.666 27.0776C179.636 24.1685 176.537 21.3339 172.434 18.6829C168.337 16.0318 163.234 13.5652 157.274 11.388C151.316 9.21076 144.498 7.32388 137.029 5.8258C129.562 4.32667 121.445 3.21635 112.976 2.56901C104.51 1.92063 95.69 1.72887 86.8803 2.02779C78.0707 2.32565 69.2691 3.1237 60.8741 4.42213C52.479 5.71845 44.4906 7.5141 37.2991 9.75219C30.1075 11.9892 23.7155 14.6687 18.4803 17.6945C11.739 21.5878 7.09814 25.9495 4.78479 30.4658C2.47145 34.9821 2.43029 39.6455 4.65592 44.1652C6.88156 48.6849 11.4127 53.0524 18.0005 56.9716C24.58 60.8919 33.2078 64.367 43.4357 67.1238C47.999 68.3539 52.9774 69.4679 58.3075 70.4149C63.6348 71.362 69.3136 72.1401 75.2278 72.7089C87.0563 73.8497 99.8234 74.1313 112.359 73.4462C118.625 73.1047 124.827 72.5211 130.8 71.7067C136.773 70.8935 142.52 69.8517 147.898 68.6141C153.276 67.3775 158.289 65.9452 162.834 64.3666C167.383 62.7881 171.463 61.0633 175.018 59.2464C176.801 58.3336 177.999 57.5877 179.253 56.9898C178.37 57.3616 179.3 56.8725 179.655 56.6485C181 55.8021 182.365 54.8733 183.656 53.9033C184.946 52.9332 186.153 51.9218 187.225 50.9178C189.379 48.9108 190.93 46.9331 191.905 45.4373C192.293 44.4879 192.916 43.2361 193.39 41.9283C193.872 40.6215 194.2 39.2576 194.264 38.1166C194.322 38.8283 194.271 39.6637 194.099 40.5561C193.927 41.4485 193.631 42.3979 193.232 43.3357C192.835 44.2745 192.339 45.2017 191.819 46.0558C191.301 46.911 190.758 47.6922 190.309 48.3466C189.977 48.5336 190.187 48.2291 189.578 48.8411C189.249 49.3517 189.91 48.8106 189.373 49.4014C187.612 51.2119 185.793 52.7951 184.583 54.0888C186.022 53.0479 187.022 52.1412 187.969 51.2206C188.91 50.2979 189.799 49.3604 190.871 48.2189C191.023 47.87 190.461 48.4365 190.885 47.8298C191.378 47.5561 191.915 46.8479 192.381 46.1153C192.854 45.3817 193.25 44.6248 193.68 44.2538C193.552 44.1998 193.768 43.6575 193.968 43.1912C194.173 42.725 194.375 42.3338 194.364 42.5918C194.83 41.026 195.041 39.8872 195.204 39.0128C195.36 38.1373 195.449 37.525 195.46 37.0101C195.72 37.1286 195.795 37.5929 195.77 38.147C195.744 38.7011 195.614 39.3419 195.547 39.8187C195.372 41.169 195.297 42.5595 194.469 43.5478C194.596 43.7742 194.38 44.1347 194.161 44.4666C193.945 44.7996 193.723 45.104 193.881 45.23C193.629 45.4223 193.424 45.7944 193.183 46.1813C192.945 46.5682 192.673 46.9689 192.338 47.2151C192.435 47.2426 192.601 47.2163 192.272 47.6C191.325 48.7881 190.22 50.0977 188.899 51.3691C187.584 52.6406 186.055 53.8728 184.424 54.9082C184.831 54.7668 183.965 55.3976 183.023 55.9851C182.088 56.5736 181.085 57.1187 181.501 56.8747C180.139 57.6956 178.331 58.86 176.326 59.8657C175.429 60.3188 174.231 60.9083 173.007 61.466C171.786 62.0237 170.541 62.5497 169.635 62.8971C167.637 63.6669 165.325 64.5847 162.518 65.5244C156.033 67.6962 148.786 69.5282 141.279 70.9275C133.775 72.3322 126.025 73.3042 118.602 73.8788C114.257 74.3386 109.682 74.5848 105.228 74.6903C100.77 74.798 96.4382 74.7672 92.4417 74.7239C90.1252 74.692 93.1392 74.6703 91.4675 74.6176C90.4905 74.6816 88.4812 74.6161 87.4849 74.5658C88.0218 74.5809 88.6861 74.5675 87.9969 74.5312C85.769 74.3852 87.2884 74.6133 85.4977 74.5035C84.1804 74.4362 84.4544 74.3633 83.0678 74.2886L83.0346 74.37C78.7116 74.0886 74.3251 73.7025 69.9884 73.2021C65.6489 72.7018 61.3621 72.0884 57.2359 71.3682C53.1152 70.647 49.1523 69.8222 45.4497 68.9183C41.747 68.0144 38.3045 67.0323 35.1969 66.0092C35.8307 66.1639 36.564 66.4265 37.2807 66.6564C37.9974 66.8862 38.6947 67.0854 39.2261 67.1184ZM183.024 55.2512C183.425 54.9796 183.816 54.707 184.201 54.4312C184.184 54.3244 183.78 54.5579 183.428 54.802C183.079 55.0471 182.78 55.3029 183.024 55.2512Z" fill="#FF9D29"></path>
                                 </svg>