<svg width="28" height="28" viewBox="0 0 28 28" fill="none" xmlns="http://www.w3.org/2000/svg" style="color: #336EF9">
                                 <g clip-path="url(#clip0_42_1709)">
                                    <path d="M26.9061 5.08592H15.3203L19.4726 0.933567C19.6862 0.720013 19.6862 0.373733 19.4726 0.160124C19.259 -0.0533748 18.9128 -0.0533748 18.6992 0.160124L13.9999 4.85935L9.30078 0.160124C9.08717 -0.0533748 8.741 -0.0533748 8.52733 0.160124C8.31378 0.373678 8.31378 0.719958 8.52733 0.933567L12.6797 5.08592H1.09375C0.490654 5.08592 0 5.57657 0 6.17966V24.6333C0 25.2364 0.490654 25.7271 1.09375 25.7271H2.18027L3.20161 27.7041C3.29551 27.8859 3.48298 28 3.68751 28H6.1813C6.38583 28 6.5733 27.8859 6.6672 27.7041L7.68854 25.7271H20.3115L21.3328 27.7041C21.4267 27.8859 21.6142 28 21.8187 28H24.3125C24.517 28 24.7045 27.8859 24.7984 27.7041L25.8197 25.7271H26.9063C27.5093 25.7271 28 25.2364 28 24.6333V6.17966C27.9999 5.57652 27.5093 5.08592 26.9061 5.08592ZM5.84826 26.9063H4.02055L3.41139 25.7271H6.45742L5.84826 26.9063ZM23.9794 26.9063H22.1517L21.5425 25.727H24.5886L23.9794 26.9063ZM26.9061 24.6333H1.09375V6.17966H26.9061L26.9069 24.6333C26.9069 24.6333 26.9066 24.6333 26.9061 24.6333Z" fill="currentcolor"></path>
                                    <path d="M19.5446 7.37695H5.0695C3.50031 7.37695 2.22363 8.65363 2.22363 10.2228V20.3831C2.22363 21.9524 3.50031 23.229 5.0695 23.229H19.5446C21.1138 23.229 22.3904 21.9524 22.3904 20.3831V10.2228C22.3904 8.65357 21.1138 7.37695 19.5446 7.37695ZM21.2967 20.3831C21.2967 21.3493 20.5107 22.1353 19.5446 22.1353H5.0695C4.1034 22.1353 3.31738 21.3493 3.31738 20.3831V10.2228C3.31738 9.25672 4.1034 8.4707 5.0695 8.4707H13.8942L5.60462 16.7603C5.39107 16.9738 5.39107 17.3201 5.60462 17.5337C5.71142 17.6404 5.85137 17.6939 5.99131 17.6939C6.13126 17.6939 6.2712 17.6404 6.37801 17.5337L15.4411 8.4707H19.5446C20.5107 8.4707 21.2967 9.25672 21.2967 10.2228V20.3831Z" fill="currentcolor"></path>
                                    <path d="M24.6875 15.0273C23.7829 15.0273 23.0469 15.7633 23.0469 16.668C23.0469 17.5726 23.7829 18.3086 24.6875 18.3086C25.5921 18.3086 26.3281 17.5726 26.3281 16.668C26.3281 15.7633 25.5921 15.0273 24.6875 15.0273ZM24.6875 17.2148C24.3859 17.2148 24.1406 16.9695 24.1406 16.668C24.1406 16.3664 24.3859 16.1211 24.6875 16.1211C24.989 16.1211 25.2344 16.3664 25.2344 16.668C25.2344 16.9695 24.989 17.2148 24.6875 17.2148Z" fill="currentcolor"></path>
                                    <path d="M24.6875 19.9492C23.7829 19.9492 23.0469 20.6852 23.0469 21.5898C23.0469 22.4945 23.7829 23.2305 24.6875 23.2305C25.5921 23.2305 26.3281 22.4945 26.3281 21.5898C26.3281 20.6852 25.5921 19.9492 24.6875 19.9492ZM24.6875 22.1367C24.3859 22.1367 24.1406 21.8914 24.1406 21.5898C24.1406 21.2883 24.3859 21.043 24.6875 21.043C24.989 21.043 25.2344 21.2883 25.2344 21.5898C25.2344 21.8914 24.989 22.1367 24.6875 22.1367Z" fill="currentcolor"></path>
                                    <path d="M25.6483 10.2402H23.5937C23.2918 10.2402 23.0469 10.4851 23.0469 10.7871C23.0469 11.0891 23.2917 11.334 23.5937 11.334H25.6483C25.9503 11.334 26.1952 11.0891 26.1952 10.7871C26.1952 10.4851 25.9503 10.2402 25.6483 10.2402Z" fill="currentcolor"></path>
                                    <path d="M25.6483 8.01562H23.5937C23.2918 8.01562 23.0469 8.26052 23.0469 8.5625C23.0469 8.86448 23.2917 9.10937 23.5937 9.10937H25.6483C25.9503 9.10937 26.1952 8.86448 26.1952 8.5625C26.1952 8.26052 25.9503 8.01562 25.6483 8.01562Z" fill="currentcolor"></path>
                                    <path d="M25.6483 12.4648H23.5937C23.2918 12.4648 23.0469 12.7097 23.0469 13.0117C23.0469 13.3137 23.2917 13.5586 23.5937 13.5586H25.6483C25.9503 13.5586 26.1952 13.3137 26.1952 13.0117C26.1952 12.7097 25.9503 12.4648 25.6483 12.4648Z" fill="currentcolor"></path>
                                    <path d="M15.289 12.6836C15.0754 12.4701 14.7292 12.4701 14.5156 12.6836L9.51417 17.685C9.30062 17.8985 9.30062 18.2448 9.51417 18.4584C9.62097 18.5652 9.76092 18.6186 9.90086 18.6186C10.0408 18.6186 10.1808 18.5652 10.2876 18.4584L15.289 13.457C15.5025 13.2434 15.5025 12.8972 15.289 12.6836Z" fill="currentcolor"></path>
                                    <path d="M8.3983 19.5743C8.29664 19.4725 8.15554 19.4141 8.01172 19.4141C7.86789 19.4141 7.7268 19.4725 7.62508 19.5743C7.52336 19.6761 7.46484 19.8171 7.46484 19.9609C7.46484 20.1048 7.5233 20.2459 7.62508 20.3475C7.7268 20.4492 7.86789 20.5078 8.01172 20.5078C8.15554 20.5078 8.29664 20.4493 8.3983 20.3475C8.50002 20.2459 8.55859 20.1048 8.55859 19.9609C8.55859 19.8171 8.50007 19.676 8.3983 19.5743Z" fill="currentcolor"></path>
                                 </g>
                                 <defs>
                                    <clipPath id="clip0_42_1709">
                                       <rect width="28" height="28" fill="currentcolor"></rect>
                                    </clipPath>
                                 </defs>
                              </svg>