<svg width="28" height="26" viewBox="0 0 28 26" fill="none" xmlns="http://www.w3.org/2000/svg" style="color: #336EF9">
                                 <path d="M6.21173 1.84762C6.65056 1.42496 6.65056 0.739652 6.21173 0.316994C5.7729 -0.105665 5.06138 -0.105665 4.62255 0.316994C-0.635904 5.38169 -0.635904 13.6193 4.62255 18.684C5.06138 19.1067 5.7729 19.1067 6.21173 18.684C6.65056 18.2613 6.65056 17.576 6.21173 17.1534C1.83098 12.934 1.83098 6.06695 6.21173 1.84762Z" fill="currentcolor"></path>
                                 <path d="M23.6927 0.316994C23.2539 -0.105665 22.5424 -0.105665 22.1035 0.316994C21.6647 0.739652 21.6647 1.42496 22.1035 1.84762C26.4843 6.06695 26.4843 12.934 22.1035 17.1534C21.6647 17.576 21.6647 18.2613 22.1035 18.684C22.5424 19.1067 23.2539 19.1067 23.6927 18.684C28.9512 13.6193 28.9512 5.38164 23.6927 0.316994Z" fill="currentcolor"></path>
                                 <path d="M9.39015 4.90816C9.82898 4.4855 9.82898 3.8002 9.39015 3.37754C8.95132 2.95488 8.2398 2.95488 7.80097 3.37754C4.29551 6.75384 4.29551 12.2467 7.80097 15.623C8.2398 16.0457 8.95132 16.0457 9.39015 15.623C9.82898 15.2004 9.82898 14.5151 9.39015 14.0924C6.7624 11.5615 6.7624 7.43914 9.39015 4.90816Z" fill="currentcolor"></path>
                                 <path d="M20.514 3.37754C20.0752 2.95488 19.3637 2.95488 18.9248 3.37754C18.486 3.8002 18.486 4.4855 18.9248 4.90816C21.5526 7.43914 21.5526 11.5615 18.9248 14.0924C18.486 14.5151 18.486 15.2004 18.9248 15.623C19.3637 16.0457 20.0752 16.0457 20.514 15.623C24.0195 12.2467 24.0195 6.75384 20.514 3.37754Z" fill="currentcolor"></path>
                                 <path d="M18.6528 9.50109C18.6528 7.10999 16.6405 5.17188 14.1579 5.17188C11.6753 5.17188 9.66309 7.10999 9.66309 9.50109C9.66309 11.5184 11.0953 13.2132 13.034 13.6939L13.0309 24.6531C13.0307 25.2509 13.5336 25.7356 14.1543 25.7357C14.7749 25.7359 15.2781 25.2515 15.2783 24.6537L15.2814 13.694C17.2202 13.2136 18.6528 11.5186 18.6528 9.50109ZM14.1579 11.6657C12.9165 11.6657 11.9104 10.6968 11.9104 9.50109C11.9104 8.30541 12.9165 7.33646 14.1579 7.33646C15.3993 7.33646 16.4053 8.30541 16.4053 9.50109C16.4053 10.6968 15.3993 11.6657 14.1579 11.6657Z" fill="currentcolor"></path>
                              </svg>