<svg width="40" height="40" viewBox="0 0 40 40" fill="none" xmlns="http://www.w3.org/2000/svg" style="color: #336EF9;">
                           <g clip-path="url(#clip0_98_344)">
                              <path d="M36.4844 22.305H33.4959L39.8271 7.53229C40.0821 6.93745 39.8065 6.24847 39.2116 5.99354C38.6168 5.73862 37.9278 6.01417 37.6729 6.60901L30.946 22.305H9.05398L2.32711 6.60901C2.07219 6.01417 1.38336 5.73847 0.788359 5.99354C0.193516 6.24847 -0.0820312 6.93737 0.172891 7.53229L6.50406 22.305H3.51562C1.57711 22.305 0 23.8821 0 25.8207V32.8519C0 34.7904 1.57711 36.3675 3.51562 36.3675H4.76562V37.6175C4.76562 38.2647 5.29031 38.7894 5.9375 38.7894C6.58469 38.7894 7.10938 38.2647 7.10938 37.6175V36.3675H32.8906V37.6175C32.8906 38.2647 33.4153 38.7894 34.0625 38.7894C34.7097 38.7894 35.2344 38.2647 35.2344 37.6175V36.3675H36.4844C38.4229 36.3675 40 34.7904 40 32.8519V25.8207C40 23.8821 38.4229 22.305 36.4844 22.305ZM37.6562 32.8519C37.6562 33.4981 37.1305 34.0238 36.4844 34.0238H3.51562C2.86945 34.0238 2.34375 33.4981 2.34375 32.8519V25.8207C2.34375 25.1745 2.86945 24.6488 3.51562 24.6488H36.4844C37.1305 24.6488 37.6562 25.1745 37.6562 25.8207V32.8519Z" fill="currentcolor"></path>
                              <path d="M17.519 16.3045C17.0614 16.7621 17.0614 17.5041 17.519 17.9617C17.9766 18.4194 18.7186 18.4194 19.1763 17.9617C19.305 17.833 19.5832 17.6172 20.0002 17.6172C20.4172 17.6172 20.6954 17.833 20.8241 17.9617C21.2817 18.4194 22.0237 18.4195 22.4814 17.9617C22.939 17.5041 22.939 16.7621 22.4814 16.3045C22.0963 15.9195 21.2619 15.2734 20.0002 15.2734C18.7385 15.2734 17.9041 15.9195 17.519 16.3045Z" fill="currentcolor"></path>
                              <path d="M9.22685 8.02227C12.1058 5.14133 15.9317 3.55469 20 3.55469C24.0683 3.55469 27.8942 5.14133 30.7731 8.02227C31.2303 8.47992 31.9723 8.48055 32.4304 8.02289C32.8882 7.56547 32.8884 6.82344 32.431 6.36563C29.1094 3.04156 24.6947 1.21094 20 1.21094C15.3053 1.21094 10.8906 3.04156 7.56903 6.36555C7.11153 6.82336 7.11177 7.56531 7.56966 8.02281C8.02739 8.48031 8.7695 8.48 9.22685 8.02227Z" fill="currentcolor"></path>
                              <path d="M29.1136 11.336C29.5714 10.8787 29.5718 10.1366 29.1145 9.67875C26.6792 7.24102 23.4423 5.89844 19.9999 5.89844C16.5575 5.89844 13.3205 7.24102 10.8853 9.67875C10.4279 10.1366 10.4282 10.8786 10.8861 11.336C11.344 11.7934 12.086 11.793 12.5434 11.3352C14.5358 9.34062 17.1839 8.24219 19.9998 8.24219C22.8157 8.24219 25.4637 9.34062 27.4562 11.3352C27.9135 11.7928 28.6553 11.7937 29.1136 11.336Z" fill="currentcolor"></path>
                              <path d="M25.7981 14.6481C26.2558 14.1905 26.2558 13.4485 25.7981 12.9909C24.2473 11.44 22.188 10.5859 19.9998 10.5859C17.8116 10.5859 15.7524 11.44 14.2016 12.9909C13.744 13.4485 13.744 14.1905 14.2016 14.6481C14.6592 15.1058 15.4012 15.1059 15.8589 14.6481C16.967 13.54 18.4377 12.9297 19.9998 12.9297C21.562 12.9297 23.0327 13.54 24.1409 14.6481C24.5984 15.1058 25.3405 15.1058 25.7981 14.6481Z" fill="currentcolor"></path>
                              <path d="M24.6875 26.9922C24.0403 26.9922 23.5156 27.5169 23.5156 28.1641V30.5078C23.5156 31.155 24.0403 31.6797 24.6875 31.6797C25.3347 31.6797 25.8594 31.155 25.8594 30.5078V28.1641C25.8594 27.5169 25.3347 26.9922 24.6875 26.9922Z" fill="currentcolor"></path>
                              <path d="M29.375 26.9922C28.7278 26.9922 28.2031 27.5169 28.2031 28.1641V30.5078C28.2031 31.155 28.7278 31.6797 29.375 31.6797C30.0222 31.6797 30.5469 31.155 30.5469 30.5078V28.1641C30.5469 27.5169 30.0222 26.9922 29.375 26.9922Z" fill="currentcolor"></path>
                              <path d="M34.0625 26.9922C33.4153 26.9922 32.8906 27.5169 32.8906 28.1641V30.5078C32.8906 31.155 33.4153 31.6797 34.0625 31.6797C34.7097 31.6797 35.2344 31.155 35.2344 30.5078V28.1641C35.2344 27.5169 34.7097 26.9922 34.0625 26.9922Z" fill="currentcolor"></path>
                           </g>
                           <defs>
                              <clipPath id="clip0_98_344">
                                 <rect width="40" height="40" fill="currentcolor"></rect>
                              </clipPath>
                           </defs>
                        </svg>