<svg width="38" height="37" viewBox="0 0 38 37" fill="none" xmlns="http://www.w3.org/2000/svg" style="color: #336EF9;">
                           <path d="M7.79926 2.60031C8.41783 2.00547 8.41783 1.04098 7.79926 0.446133C7.1807 -0.148711 6.17775 -0.148711 5.55918 0.446133C-1.85306 7.57412 -1.85306 19.1676 5.55918 26.2956C6.17775 26.8904 7.1807 26.8904 7.79926 26.2956C8.41783 25.7008 8.41783 24.7363 7.79926 24.1414C1.62423 18.2032 1.62423 8.53854 7.79926 2.60031Z" fill="currentcolor"></path>
                           <path d="M32.4408 0.446133C31.8223 -0.148711 30.8193 -0.148711 30.2007 0.446133C29.5822 1.04098 29.5822 2.00546 30.2007 2.60031C36.3758 8.53854 36.3758 18.2032 30.2007 24.1414C29.5822 24.7363 29.5822 25.7008 30.2007 26.2956C30.8193 26.8904 31.8223 26.8904 32.4408 26.2956C39.8531 19.1676 39.8531 7.57405 32.4408 0.446133Z" fill="currentcolor"></path>
                           <path d="M12.279 6.90695C12.8976 6.31211 12.8976 5.34762 12.279 4.75277C11.6605 4.15793 10.6575 4.15793 10.0389 4.75277C5.0977 9.50453 5.0977 17.2351 10.0389 21.9869C10.6575 22.5817 11.6605 22.5817 12.279 21.9869C12.8976 21.392 12.8976 20.4276 12.279 19.8327C8.57498 16.2707 8.57498 10.469 12.279 6.90695Z" fill="currentcolor"></path>
                           <path d="M27.9604 4.75277C27.3418 4.15793 26.3388 4.15793 25.7203 4.75277C25.1017 5.34762 25.1017 6.31211 25.7203 6.90695C29.4244 10.469 29.4244 16.2707 25.7203 19.8327C25.1017 20.4276 25.1017 21.392 25.7203 21.9869C26.3388 22.5817 27.3418 22.5817 27.9604 21.9869C32.9016 17.2351 32.9016 9.50453 27.9604 4.75277Z" fill="currentcolor"></path>
                           <path d="M25.3358 13.3722C25.3358 10.007 22.4993 7.2793 18.9999 7.2793C15.5005 7.2793 12.6641 10.007 12.6641 13.3722C12.6641 16.2113 14.683 18.5966 17.4156 19.2731L17.4112 34.697C17.411 35.5382 18.1199 36.2204 18.9948 36.2206C19.8696 36.2208 20.579 35.5391 20.5792 34.6977L20.5836 19.2732C23.3165 18.5971 25.3358 16.2116 25.3358 13.3722ZM18.9998 16.4187C17.25 16.4187 15.8319 15.055 15.8319 13.3722C15.8319 11.6894 17.25 10.3257 18.9998 10.3257C20.7497 10.3257 22.1678 11.6894 22.1678 13.3722C22.1678 15.055 20.7497 16.4187 18.9998 16.4187Z" fill="currentcolor"></path>
                        </svg>