<svg width="40" height="40" viewBox="0 0 40 40" fill="none" xmlns="http://www.w3.org/2000/svg" style="color: #336EF9;">
                           <g clip-path="url(#clip0_98_366)">
                              <path d="M36.4844 7.10939H20.4636L25.5206 1.99587C25.9756 1.53597 25.9717 0.79378 25.5115 0.338763C25.0513 -0.116559 24.3094 -0.112286 23.8544 0.347919L17.6562 6.6147L11.4581 0.347919C11.0031 -0.112286 10.2612 -0.116253 9.80102 0.338763C9.34081 0.79378 9.33685 1.53597 9.79186 1.99587L14.8489 7.10939H3.51562C1.57715 7.10939 0 8.68654 0 10.625V34.1406C0 36.0791 1.57715 37.6562 3.51562 37.6562H5.45227L5.10894 37.9996C4.65118 38.457 4.65118 39.1992 5.10894 39.6567C5.33752 39.8856 5.63751 40 5.9375 40C6.23748 40 6.53747 39.8856 6.76605 39.6567L8.76678 37.6562H31.3116L33.3121 39.6567C33.5406 39.8856 33.8406 40 34.1406 40C34.4406 40 34.7406 39.8856 34.9692 39.6567C35.4269 39.1992 35.4269 38.4573 34.9692 37.9996L34.6261 37.6562H36.4844C38.4228 37.6562 40 36.0791 40 34.1406V10.625C40 8.68654 38.4228 7.10939 36.4844 7.10939ZM37.6562 34.1406C37.6562 34.7867 37.1304 35.3125 36.4844 35.3125H3.51562C2.86957 35.3125 2.34375 34.7867 2.34375 34.1406V10.625C2.34375 9.97896 2.86957 9.45314 3.51562 9.45314H36.4844C37.1304 9.45314 37.6562 9.97896 37.6562 10.625V34.1406Z" fill="currentcolor"></path>
                              <path d="M24.6875 11.7969H8.28125C6.34277 11.7969 4.76562 13.374 4.76562 15.3125V29.375C4.76562 31.3135 6.34277 32.8906 8.28125 32.8906H24.6875C26.626 32.8906 28.2031 31.3135 28.2031 29.375V15.3125C28.2031 13.374 26.626 11.7969 24.6875 11.7969ZM25.8594 29.375C25.8594 30.021 25.3335 30.5469 24.6875 30.5469H8.28125C7.63519 30.5469 7.10937 30.021 7.10937 29.375V15.3125C7.10937 14.6664 7.63519 14.1406 8.28125 14.1406H24.6875C25.3335 14.1406 25.8594 14.6664 25.8594 15.3125V29.375Z" fill="currentcolor"></path>
                              <path d="M32.9687 12.9688C31.6763 12.9688 30.625 14.0201 30.625 15.3125C30.625 16.6049 31.6763 17.6562 32.9687 17.6562C34.2612 17.6562 35.3125 16.6049 35.3125 15.3125C35.3125 14.0201 34.2612 12.9688 32.9687 12.9688Z" fill="currentcolor"></path>
                              <path d="M34.1406 20H31.7969C31.1496 20 30.625 20.5246 30.625 21.1719C30.625 21.8192 31.1496 22.3437 31.7969 22.3437H34.1406C34.7879 22.3437 35.3125 21.8192 35.3125 21.1719C35.3125 20.5246 34.7879 20 34.1406 20Z" fill="currentcolor"></path>
                              <path d="M34.1406 24.6875H31.7969C31.1496 24.6875 30.625 25.2121 30.625 25.8594C30.625 26.5067 31.1496 27.0312 31.7969 27.0312H34.1406C34.7879 27.0312 35.3125 26.5067 35.3125 25.8594C35.3125 25.2121 34.7879 24.6875 34.1406 24.6875Z" fill="currentcolor"></path>
                              <path d="M34.1406 29.375H31.7969C31.1496 29.375 30.625 29.8996 30.625 30.5469C30.625 31.1942 31.1496 31.7187 31.7969 31.7187H34.1406C34.7879 31.7187 35.3125 31.1942 35.3125 30.5469C35.3125 29.8996 34.7879 29.375 34.1406 29.375Z" fill="currentcolor"></path>
                           </g>
                           <defs>
                              <clipPath id="clip0_98_366">
                                 <rect width="40" height="40" fill="currentcolor"></rect>
                              </clipPath>
                           </defs>
                        </svg>