<svg width="42" height="42" viewBox="0 0 42 42" fill="none" xmlns="http://www.w3.org/2000/svg" style="color: #336EF9;">
                           <path d="M34.8288 29.6953C35.3368 31.1274 36.7045 32.1562 38.3086 32.1562C40.344 32.1562 42 30.5003 42 28.4648C42 26.4294 40.344 24.7734 38.3086 24.7734C36.7045 24.7734 35.3368 25.8023 34.8288 27.2344H27.0703V24.7734H33.3867C33.7033 24.7734 34.0077 24.6514 34.2366 24.4327L36.7965 21.9872C37.2583 22.1955 37.7699 22.3125 38.3086 22.3125C40.344 22.3125 42 20.6565 42 18.6211C42 16.5857 40.344 14.9297 38.3086 14.9297C36.2732 14.9297 34.6172 16.5857 34.6172 18.6211C34.6172 19.2197 34.7613 19.785 35.0153 20.2855L32.8934 22.3125H27.0703V21.082C27.0703 19.4779 26.0416 18.1102 24.6094 17.6023V11.0742C24.6094 4.96789 19.6415 0 13.5352 0C7.42883 0 2.46094 4.96789 2.46094 11.0742V17.6023C1.02875 18.1102 0 19.4779 0 21.082V35.8477C0 37.8831 1.65596 39.5391 3.69141 39.5391H23.3789C25.4143 39.5391 27.0703 37.8831 27.0703 35.8477V34.6172H32.8146L34.8467 37.0276C34.6985 37.4268 34.6172 37.8583 34.6172 38.3086C34.6172 40.344 36.2732 42 38.3086 42C40.344 42 42 40.344 42 38.3086C42 36.2732 40.344 34.6172 38.3086 34.6172C37.6335 34.6172 37.0007 34.8002 36.4557 35.1179L34.3275 32.5936C34.0937 32.3163 33.7495 32.1562 33.3867 32.1562H27.0703V29.6953H34.8288ZM38.3086 27.2344C38.9871 27.2344 39.5391 27.7864 39.5391 28.4648C39.5391 29.1433 38.9871 29.6953 38.3086 29.6953C37.6301 29.6953 37.0781 29.1433 37.0781 28.4648C37.0781 27.7864 37.6301 27.2344 38.3086 27.2344ZM38.3086 17.3906C38.9871 17.3906 39.5391 17.9426 39.5391 18.6211C39.5391 19.2996 38.9871 19.8516 38.3086 19.8516C37.6301 19.8516 37.0781 19.2996 37.0781 18.6211C37.0781 17.9426 37.6301 17.3906 38.3086 17.3906ZM4.92188 11.0742C4.92188 6.32486 8.78579 2.46094 13.5352 2.46094C18.2845 2.46094 22.1484 6.32486 22.1484 11.0742V17.3906H19.6875V11.0742C19.6875 7.68182 16.9276 4.92188 13.5352 4.92188C10.1428 4.92188 7.38281 7.68182 7.38281 11.0742V17.3906H4.92188V11.0742ZM17.2266 11.0742V17.3906H9.84375V11.0742C9.84375 9.03878 11.4997 7.38281 13.5352 7.38281C15.5706 7.38281 17.2266 9.03878 17.2266 11.0742ZM24.6094 35.8477C24.6094 36.5261 24.0574 37.0781 23.3789 37.0781H3.69141C3.01293 37.0781 2.46094 36.5261 2.46094 35.8477V21.082C2.46094 20.4036 3.01293 19.8516 3.69141 19.8516H23.3789C24.0574 19.8516 24.6094 20.4036 24.6094 21.082V35.8477ZM38.3086 37.0781C38.9871 37.0781 39.5391 37.6301 39.5391 38.3086C39.5391 38.9871 38.9871 39.5391 38.3086 39.5391C37.6301 39.5391 37.0781 38.9871 37.0781 38.3086C37.0781 37.6301 37.6301 37.0781 38.3086 37.0781Z" fill="currentcolor"></path>
                        </svg>