<svg width="40" height="32" viewBox="0 0 40 32" fill="none" xmlns="http://www.w3.org/2000/svg" style="color: #336EF9">
                           <path d="M36.6 11.2008C27.4 2.00078 12.6 2.00078 3.4 11.2008C2.6 12.0008 1.4 12.0008 0.6 11.2008C-0.2 10.4008 -0.2 9.20078 0.6 8.40078C11.4 -2.39922 28.8 -2.39922 39.4 8.40078C40.2 9.20078 40.2 10.4008 39.4 11.2008C38.6 12.0008 37.4 12.0008 36.6 11.2008Z" fill="currentcolor"></path>
                           <path d="M30.8 16.8008C24.8 11.0008 15.2 11.0008 9.4 16.8008C8.6 17.6008 7.4 17.6008 6.6 16.8008C5.8 16.0008 5.8 14.8008 6.6 14.0008C14 6.40078 26.2 6.40078 33.6 14.0008C34.4 14.8008 34.4 16.0008 33.6 16.8008C32.8 17.6008 31.6 17.6008 30.8 16.8008Z" fill="currentcolor"></path>
                           <path d="M25.2 22.8016C22.4 20.0016 18 20.0016 15.4 22.8016C14.6 23.6016 13.4 23.6016 12.6 22.8016C11.8 22.0016 11.8 20.6016 12.6 19.8016C16.8 15.2016 23.8 15.2016 28 19.8016C28.8 20.6016 28.8 22.0016 28 22.8016C27.2 23.6016 26 23.6016 25.2 22.8016Z" fill="currentcolor"></path>
                           <path d="M20.2 31.8012C22.2987 31.8012 24 30.0999 24 28.0012C24 25.9025 22.2987 24.2012 20.2 24.2012C18.1013 24.2012 16.4 25.9025 16.4 28.0012C16.4 30.0999 18.1013 31.8012 20.2 31.8012Z" fill="currentcolor"></path>
                        </svg>
