<svg width="50" height="50" viewBox="0 0 50 50" fill="none" xmlns="http://www.w3.org/2000/svg">
                           <path d="M47.6096 39.3245L36.3724 28.0873C35.9912 27.7062 35.373 27.7061 34.9913 28.0873L32.6557 30.4228L30.5215 28.2887L36.9145 21.8957C37.6493 21.1609 37.6493 19.9651 36.9145 19.2304L36.54 18.8559L37.7134 17.6824C38.4099 16.9858 38.4099 15.8526 37.7134 15.1561L34.8244 12.267C34.4876 11.9302 34.039 11.7446 33.5611 11.7446C33.0832 11.7446 32.6346 11.9301 32.2979 12.2669L31.1244 13.4403L30.75 13.0658C30.3947 12.7105 29.9214 12.5148 29.4173 12.5148C28.9133 12.5148 28.44 12.7105 28.0847 13.0658L21.6917 19.4588L19.5576 17.3246L21.8529 15.0293C22.2342 14.6479 22.2342 14.0296 21.8529 13.6481L10.6157 2.41094C10.2342 2.02969 9.61606 2.02969 9.23452 2.41094L3.26274 8.38272C3.07964 8.56592 2.97671 8.81426 2.97671 9.07324C2.97671 9.33223 3.07964 9.58057 3.26274 9.76377L14.5 21.001C14.6833 21.1841 14.9316 21.287 15.1906 21.287C15.4496 21.287 15.6979 21.1841 15.8811 21.001L18.1764 18.7056L20.3106 20.8397L13.9578 27.1926C13.223 27.9273 13.223 29.1231 13.9578 29.8579L20.1222 36.0223C20.4897 36.3897 20.9722 36.5735 21.4548 36.5734C21.9374 36.5734 22.4201 36.3897 22.7875 36.0224L29.1404 29.6696L31.2745 31.8038L29.0193 34.059C28.8362 34.2422 28.7333 34.4905 28.7333 34.7495C28.7333 35.0085 28.8362 35.2568 29.0193 35.44L40.2566 46.6772C40.4473 46.8679 40.6972 46.9633 40.9471 46.9633C41.197 46.9633 41.4469 46.8679 41.6376 46.6772L47.6094 40.7055C47.9911 40.3242 47.9911 39.7059 47.6096 39.3245ZM15.1907 18.9295L5.33433 9.07334L9.92515 4.48252L19.7814 14.3388L17.4875 16.6327C17.487 16.6332 17.4865 16.6336 17.486 16.6341C17.4855 16.6346 17.4851 16.6351 17.4846 16.6355L15.1907 18.9295ZM33.5612 13.7658L36.2145 16.4191L35.1589 17.4747L32.5056 14.8214L33.5612 13.7658ZM29.4173 14.4953L30.4338 15.5117C30.4338 15.5117 30.4339 15.5118 30.4339 15.5119C30.4339 15.512 30.434 15.512 30.434 15.512L34.4675 19.5454C34.4678 19.5457 34.468 19.546 34.4683 19.5463C34.4685 19.5466 34.4689 19.5468 34.4691 19.5471L35.485 20.563L28.4508 27.5972C28.4505 27.5975 28.4501 27.5978 28.4499 27.598C28.4496 27.5983 28.4493 27.5987 28.449 27.599L24.0335 32.0145L17.9659 25.9468L22.3812 21.5313C22.3815 21.5311 22.3819 21.5308 22.3822 21.5305C22.3825 21.5302 22.3828 21.5298 22.3831 21.5295L29.4173 14.4953ZM15.3873 28.5254L16.5848 27.3278L22.6525 33.3955L21.455 34.5931L15.3873 28.5254ZM40.9473 44.6059L31.091 34.7496L33.3448 32.4958C33.3453 32.4953 33.3458 32.4949 33.3463 32.4944C33.3468 32.4939 33.3472 32.4935 33.3477 32.493L35.6819 30.1588L45.5381 40.015L40.9473 44.6059ZM7.63589 31.8301C7.34575 31.9637 7.13931 32.2309 7.08315 32.5452C7.027 32.8596 7.12808 33.1817 7.35386 33.4076L11.2728 37.3266L10.0583 38.5409C9.6769 38.9223 9.6769 39.5405 10.0583 39.922C10.249 40.1127 10.4989 40.2081 10.7488 40.2081C10.9987 40.2081 11.2486 40.1127 11.4392 39.9221L12.6538 38.7076L16.5727 42.6265C16.7576 42.8112 17.0065 42.9125 17.2632 42.9125C17.3204 42.9125 17.3779 42.9074 17.4351 42.8973C17.7496 42.8411 18.0166 42.6347 18.1502 42.3445C19.5317 39.3453 18.8905 35.761 16.5549 33.4254C14.2195 31.0897 10.6354 30.4486 7.63589 31.8301ZM16.8228 40.1143L9.86616 33.1576C11.7663 32.8109 13.7699 33.4021 15.1741 34.8064C16.5783 36.2106 17.1697 38.214 16.8228 40.1143ZM12.4846 44.0425C12.4846 44.5817 12.0473 45.019 11.5081 45.019C7.89829 45.019 4.96147 42.0822 4.96147 38.4725C4.96147 37.9332 5.39878 37.4959 5.93804 37.4959C6.47729 37.4959 6.9146 37.9332 6.9146 38.4725C6.9146 41.0054 8.97524 43.0659 11.5081 43.0659C12.0473 43.0659 12.4846 43.5031 12.4846 44.0425ZM12.341 46.8996C12.341 47.4389 11.9037 47.8762 11.3644 47.8762C6.25835 47.8762 2.10425 43.7221 2.10425 38.6159C2.10425 38.0767 2.54155 37.6394 3.08081 37.6394C3.62007 37.6394 4.05737 38.0767 4.05737 38.6159C4.05737 42.6451 7.3353 45.923 11.3644 45.923C11.9038 45.923 12.341 46.3604 12.341 46.8996Z" fill="currentcolor"></path>
                           </svg>