<svg width="47" height="47" viewBox="0 0 47 47" fill="none" xmlns="http://www.w3.org/2000/svg">
                           <path d="M37.3446 19.2463C37.8091 19.2463 38.1855 18.8697 38.1855 18.4054C38.1855 17.9411 37.8089 17.5645 37.3446 17.5645C36.8802 17.5645 36.5034 17.9411 36.5034 18.4054C36.5034 18.8697 36.88 19.2463 37.3446 19.2463Z" fill="currentcolor"></path>
                           <path d="M5.67708 9.94102C5.83067 10.0946 6.03206 10.1715 6.23325 10.1715C6.43444 10.1715 6.63583 10.0946 6.78942 9.94102L7.41325 9.3172L8.03708 9.94102C8.19067 10.0946 8.39206 10.1715 8.59325 10.1715C8.79444 10.1715 8.99583 10.0946 9.14942 9.94102C9.45662 9.63383 9.45662 9.13587 9.14942 8.82868L8.5256 8.20485L9.14942 7.58102C9.45662 7.27383 9.45662 6.77587 9.14942 6.46868C8.84223 6.16148 8.34427 6.16148 8.03708 6.46868L7.41325 7.0925L6.78942 6.46868C6.48223 6.16148 5.98427 6.16148 5.67708 6.46868C5.36988 6.77587 5.36988 7.27383 5.67708 7.58102L6.3009 8.20485L5.67708 8.82868C5.36969 9.13587 5.36969 9.63363 5.67708 9.94102Z" fill="currentcolor"></path>
                           <path d="M14.4533 5.4075C15.7546 5.4075 16.8133 4.34884 16.8133 3.0475C16.8133 1.74616 15.7546 0.6875 14.4533 0.6875C13.1519 0.6875 12.0933 1.74616 12.0933 3.0475C12.0933 4.34884 13.1517 5.4075 14.4533 5.4075ZM14.4533 2.26083C14.8869 2.26083 15.2399 2.61385 15.2399 3.0475C15.2399 3.48115 14.8869 3.83417 14.4533 3.83417C14.0196 3.83417 13.6666 3.48115 13.6666 3.0475C13.6666 2.61385 14.0196 2.26083 14.4533 2.26083Z" fill="currentcolor"></path>
                           <path d="M46.2794 36.1734C46.1569 36.1106 43.4287 34.7296 39.6265 34.8793V34.5133C39.6265 34.0789 39.2747 33.7266 38.8399 33.7266H31.0236C35.9984 31.7985 39.7613 29.1893 39.9678 29.0446C40.3235 28.7952 40.4103 28.3047 40.1613 27.9492L40.0291 27.7602C41.3476 27.1238 43.779 25.7697 45.0012 23.9364C45.2425 23.5749 45.1448 23.0864 44.7831 22.8455C44.4197 22.6038 43.9327 22.7019 43.6922 23.0636C42.611 24.6859 40.2091 25.9406 39.1138 26.4518L38.8086 26.0155C38.5612 25.6606 38.0735 25.5734 37.7161 25.8197C37.425 26.0211 30.7398 30.5916 23.8934 31.6345V31.3666C23.8934 30.9322 23.5416 30.58 23.1067 30.58H1.07988C0.645443 30.58 0.293213 30.9322 0.293213 31.3666C0.293213 31.8011 0.645443 32.1533 1.07988 32.1533H22.3199V40.02H1.07988C0.645443 40.02 0.293213 40.3722 0.293213 40.8066C0.293213 41.2411 0.645443 41.5933 1.07988 41.5933H23.1065C23.5414 41.5933 23.8932 41.2411 23.8932 40.8066V40.2979C26.3104 40.9119 32.2399 42.5593 36.2909 44.8741C36.4106 44.9429 36.5452 44.9777 36.6811 44.9777C36.7503 44.9777 36.8201 44.9685 36.8878 44.95C37.0889 44.8951 37.2604 44.7626 37.3641 44.5813L37.5889 44.1877C38.6806 44.6761 41.1725 45.694 44.192 46.2978C44.2443 46.3082 44.2964 46.3131 44.3471 46.3131C44.7143 46.3131 45.0431 46.0547 45.1177 45.6808C45.203 45.2548 44.9263 44.8405 44.5007 44.7551C41.7763 44.2102 39.4649 43.2898 38.3746 42.8126L38.5346 42.5324C38.7506 42.1552 38.6192 41.6747 38.242 41.4592C35.4187 39.8457 31.903 38.5587 29.0278 37.66H38.8399C39.2747 37.66 39.6265 37.3077 39.6265 36.8733V36.456C43.023 36.3114 45.535 37.5605 45.5619 37.5736C45.6764 37.6324 45.7985 37.66 45.9191 37.66C46.2048 37.66 46.48 37.5044 46.6196 37.2328C46.8178 36.8464 46.6658 36.372 46.2794 36.1734ZM37.9586 27.545L38.4111 28.1922C36.6103 29.3589 31.3715 32.5085 25.6203 33.7266H23.8932V33.2267C30.0093 32.3612 36.002 28.8003 37.9586 27.545ZM36.3823 43.1291C31.9634 40.7876 25.947 39.1841 23.8932 38.6756V37.8639C25.8176 38.3284 32.0852 39.9517 36.7725 42.4457L36.3823 43.1291ZM38.0532 36.0866H23.8932V35.3H38.0532V36.0866Z" fill="currentcolor"></path>
                           <path d="M19.9598 27.4347C25.1653 27.4347 29.3998 23.1999 29.3998 17.9947C29.3998 12.7895 25.1653 8.55469 19.9598 8.55469C14.7546 8.55469 10.5198 12.7895 10.5198 17.9947C10.5198 23.1999 14.7546 27.4347 19.9598 27.4347ZM19.9598 10.128C24.2973 10.128 27.8264 13.6568 27.8264 17.9947C27.8264 22.3326 24.2973 25.8613 19.9598 25.8613C15.6219 25.8613 12.0931 22.3326 12.0931 17.9947C12.0931 13.6568 15.6219 10.128 19.9598 10.128Z" fill="currentcolor"></path>
                           <path d="M16.0266 19.5678H18.3866V23.5011C18.3866 23.8549 18.6225 24.1649 18.9633 24.2593C19.0331 24.2785 19.1035 24.2878 19.1733 24.2878C19.4445 24.2878 19.7029 24.1472 19.8479 23.9061L24.5679 16.0394C24.7138 15.7963 24.7177 15.4937 24.5779 15.247C24.4381 15.0004 24.1767 14.8478 23.8933 14.8478H21.5333V11.7011C21.5333 11.3546 21.3064 11.0486 20.9744 10.9483C20.6436 10.8468 20.2845 10.9764 20.0921 11.2647L15.3721 18.3447C15.2113 18.586 15.1961 18.8964 15.333 19.152C15.4701 19.4081 15.7366 19.5678 16.0266 19.5678ZM19.96 14.2993V15.6345C19.96 16.0689 20.3122 16.4211 20.7466 16.4211H22.5037L19.96 20.6611V18.7811C19.96 18.3467 19.6078 17.9945 19.1733 17.9945H17.4967L19.96 14.2993Z" fill="currentcolor"></path>
                           </svg>